# xmcd
#
# Track frame offsets:
# 150
# 14960
# 35105
# 50725
# 64682
# 78895
# 92887
# 106900
# 120045
# 135447
# 151165
# 167930
#
# Disc length: 2422 seconds
#
#
# Revision: 0
# Processed by: cddbd v1.5.1PL0 Copyright (c) Steve Scherf et al.
# Submitted via: FreeRIP 2.70 
#
DISCID=9809740c
DTITLE=Davis, Mac - 36 All-Time Greatest Hits - Disc 1
DYEAR=2000
DGENRE=Country
TTITLE0=Emily Suzanne
TTITLE1=Whoever Finds This, I Love You
TTITLE2=Beginning To Feel The Pain
TTITLE3=Baby Don't Get Hooked On Me
TTITLE4=Everybody Loves A Love Song
TTITLE5=Dream Me Home
TTITLE6=Your Side Of The Bed
TTITLE7=One Hell Of A Woman
TTITLE8=Stop And Smell The Roses
TTITLE9=Rock N' Roll (I Gave You The Best Years Of My Life)
TTITLE10=(If You Add) All The Love In The World
TTITLE11=Burnin' Thing
EXTD=Entered By Itaot...
EXTT0=
EXTT1=
EXTT2=
EXTT3=
EXTT4=
EXTT5=
EXTT6=
EXTT7=
EXTT8=
EXTT9=
EXTT10=
EXTT11=
PLAYORDER=
